# xmcd
#
# Track frame offsets: 
#        150
#        11680
#        23955
#        36762
#        47497
#        60150
#        71715
#        82302
#        96654
#        108722
#        118962
#        132057
#        143210
#        155560
#        164480
#        176302
#        189147
#        198462
#        211180
#        224257
#
# Disc length: 3173 seconds
#
# Revision: 2
# Processed by: cddbd v1.5.2PL0 Copyright (c) Steve Scherf et al.
# Submitted via: ExactAudioCopy v0.95a5
#
DISCID=230c6314
DTITLE=Freddy Fender - Before The Next Teardrop Falls
DYEAR=1996
DGENRE=Country
TTITLE0=Before The Next Teardrop Falls
TTITLE1=Wasted Days And Wasted Nights
TTITLE2=You'll Lose A Good Thing
TTITLE3=The Rains Came
TTITLE4=Almost Persuaded
TTITLE5=I'm Leaving It All Up To You
TTITLE6=A Man Can Cry
TTITLE7=Wild Side Of Life
TTITLE8=She's About A Mover
TTITLE9=Crazy Baby
TTITLE10=That Girl Who Waits On Tables
TTITLE11=Mathilda
TTITLE12=Lovin' Cajun Syle
TTITLE13=You Make Me Cry
TTITLE14=Sweet Summer Day
TTITLE15=Silver Wings
TTITLE16=Running Back
TTITLE17=Enter My Heart
TTITLE18=Going Out With The Tide
TTITLE19=Baby I Want To Love You
EXTD=
EXTT0=
EXTT1=
EXTT2=
EXTT3=
EXTT4=
EXTT5=
EXTT6=
EXTT7=
EXTT8=
EXTT9=
EXTT10=
EXTT11=
EXTT12=
EXTT13=
EXTT14=
EXTT15=
EXTT16=
EXTT17=
EXTT18=
EXTT19=
PLAYORDER=
